<mxfile modified="2022-03-24T20:16:34.031Z" host="app.diagrams.net" agent="5.0 (X11; Linux x86_64) AppleWebKit/537.36 (KHTML, like Gecko) Chrome/99.0.4844.51 Safari/537.36" etag="biYILUD5V76_FpxbsF6U" version="17.2.2" type="github">
  <diagram id="Ht1M8jgEwFfnCIfOTk4-" name="Page-1">
    <mxGraphModel dx="1483" dy="903" grid="1" gridSize="10" guides="1" tooltips="1" connect="1" arrows="1" fold="1" page="1" pageScale="1" pageWidth="1920" pageHeight="1200" math="0" shadow="0">
      <root>
        <mxCell id="0" />
        <mxCell id="1" parent="0" />
        <mxCell id="Z9AQ9OPiCjsGzSmNNZ1b-1" value="Region" style="points=[[0,0],[0.25,0],[0.5,0],[0.75,0],[1,0],[1,0.25],[1,0.5],[1,0.75],[1,1],[0.75,1],[0.5,1],[0.25,1],[0,1],[0,0.75],[0,0.5],[0,0.25]];outlineConnect=0;gradientColor=none;html=1;whiteSpace=wrap;fontSize=12;fontStyle=0;container=1;pointerEvents=0;collapsible=0;recursiveResize=0;shape=mxgraph.aws4.group;grIcon=mxgraph.aws4.group_region;strokeColor=#147EBA;fillColor=none;verticalAlign=top;align=left;spacingLeft=30;fontColor=#147EBA;dashed=1;" vertex="1" parent="1">
          <mxGeometry x="240" y="80" width="1040" height="880" as="geometry" />
        </mxCell>
        <mxCell id="Z9AQ9OPiCjsGzSmNNZ1b-2" value="VPC" style="points=[[0,0],[0.25,0],[0.5,0],[0.75,0],[1,0],[1,0.25],[1,0.5],[1,0.75],[1,1],[0.75,1],[0.5,1],[0.25,1],[0,1],[0,0.75],[0,0.5],[0,0.25]];outlineConnect=0;gradientColor=none;html=1;whiteSpace=wrap;fontSize=12;fontStyle=0;container=1;pointerEvents=0;collapsible=0;recursiveResize=0;shape=mxgraph.aws4.group;grIcon=mxgraph.aws4.group_vpc;strokeColor=#248814;fillColor=none;verticalAlign=top;align=left;spacingLeft=30;fontColor=#AAB7B8;dashed=0;" vertex="1" parent="Z9AQ9OPiCjsGzSmNNZ1b-1">
          <mxGeometry x="40" y="40" width="960" height="800" as="geometry" />
        </mxCell>
        <mxCell id="Z9AQ9OPiCjsGzSmNNZ1b-3" value="Availability Zone" style="fillColor=none;strokeColor=#147EBA;dashed=1;verticalAlign=top;fontStyle=0;fontColor=#147EBA;" vertex="1" parent="Z9AQ9OPiCjsGzSmNNZ1b-2">
          <mxGeometry x="40" y="80" width="400" height="680" as="geometry" />
        </mxCell>
        <mxCell id="Z9AQ9OPiCjsGzSmNNZ1b-4" value="Availability Zone" style="fillColor=none;strokeColor=#147EBA;dashed=1;verticalAlign=top;fontStyle=0;fontColor=#147EBA;" vertex="1" parent="Z9AQ9OPiCjsGzSmNNZ1b-2">
          <mxGeometry x="520" y="80" width="400" height="680" as="geometry" />
        </mxCell>
        <mxCell id="Z9AQ9OPiCjsGzSmNNZ1b-11" style="edgeStyle=orthogonalEdgeStyle;rounded=0;orthogonalLoop=1;jettySize=auto;html=1;entryX=0;entryY=0.5;entryDx=0;entryDy=0;entryPerimeter=0;" edge="1" parent="Z9AQ9OPiCjsGzSmNNZ1b-2" source="Z9AQ9OPiCjsGzSmNNZ1b-5" target="Z9AQ9OPiCjsGzSmNNZ1b-10">
          <mxGeometry relative="1" as="geometry">
            <Array as="points">
              <mxPoint x="240" y="15" />
            </Array>
          </mxGeometry>
        </mxCell>
        <mxCell id="Z9AQ9OPiCjsGzSmNNZ1b-5" value="Public subnet" style="points=[[0,0],[0.25,0],[0.5,0],[0.75,0],[1,0],[1,0.25],[1,0.5],[1,0.75],[1,1],[0.75,1],[0.5,1],[0.25,1],[0,1],[0,0.75],[0,0.5],[0,0.25]];outlineConnect=0;gradientColor=none;html=1;whiteSpace=wrap;fontSize=12;fontStyle=0;container=1;pointerEvents=0;collapsible=0;recursiveResize=0;shape=mxgraph.aws4.group;grIcon=mxgraph.aws4.group_security_group;grStroke=0;strokeColor=#248814;fillColor=#E9F3E6;verticalAlign=top;align=left;spacingLeft=30;fontColor=#248814;dashed=0;" vertex="1" parent="Z9AQ9OPiCjsGzSmNNZ1b-2">
          <mxGeometry x="80" y="120" width="320" height="280" as="geometry" />
        </mxCell>
        <mxCell id="Z9AQ9OPiCjsGzSmNNZ1b-12" style="edgeStyle=orthogonalEdgeStyle;rounded=0;orthogonalLoop=1;jettySize=auto;html=1;entryX=1;entryY=0.5;entryDx=0;entryDy=0;entryPerimeter=0;" edge="1" parent="Z9AQ9OPiCjsGzSmNNZ1b-2" source="Z9AQ9OPiCjsGzSmNNZ1b-6" target="Z9AQ9OPiCjsGzSmNNZ1b-10">
          <mxGeometry relative="1" as="geometry">
            <Array as="points">
              <mxPoint x="720" y="15" />
            </Array>
          </mxGeometry>
        </mxCell>
        <mxCell id="Z9AQ9OPiCjsGzSmNNZ1b-6" value="Public subnet" style="points=[[0,0],[0.25,0],[0.5,0],[0.75,0],[1,0],[1,0.25],[1,0.5],[1,0.75],[1,1],[0.75,1],[0.5,1],[0.25,1],[0,1],[0,0.75],[0,0.5],[0,0.25]];outlineConnect=0;gradientColor=none;html=1;whiteSpace=wrap;fontSize=12;fontStyle=0;container=1;pointerEvents=0;collapsible=0;recursiveResize=0;shape=mxgraph.aws4.group;grIcon=mxgraph.aws4.group_security_group;grStroke=0;strokeColor=#248814;fillColor=#E9F3E6;verticalAlign=top;align=left;spacingLeft=30;fontColor=#248814;dashed=0;" vertex="1" parent="Z9AQ9OPiCjsGzSmNNZ1b-2">
          <mxGeometry x="560" y="120" width="320" height="280" as="geometry" />
        </mxCell>
        <mxCell id="Z9AQ9OPiCjsGzSmNNZ1b-7" value="Private subnet" style="points=[[0,0],[0.25,0],[0.5,0],[0.75,0],[1,0],[1,0.25],[1,0.5],[1,0.75],[1,1],[0.75,1],[0.5,1],[0.25,1],[0,1],[0,0.75],[0,0.5],[0,0.25]];outlineConnect=0;gradientColor=none;html=1;whiteSpace=wrap;fontSize=12;fontStyle=0;container=1;pointerEvents=0;collapsible=0;recursiveResize=0;shape=mxgraph.aws4.group;grIcon=mxgraph.aws4.group_security_group;grStroke=0;strokeColor=#147EBA;fillColor=#E6F2F8;verticalAlign=top;align=left;spacingLeft=30;fontColor=#147EBA;dashed=0;" vertex="1" parent="Z9AQ9OPiCjsGzSmNNZ1b-2">
          <mxGeometry x="80" y="440" width="320" height="280" as="geometry" />
        </mxCell>
        <mxCell id="Z9AQ9OPiCjsGzSmNNZ1b-8" value="Private subnet" style="points=[[0,0],[0.25,0],[0.5,0],[0.75,0],[1,0],[1,0.25],[1,0.5],[1,0.75],[1,1],[0.75,1],[0.5,1],[0.25,1],[0,1],[0,0.75],[0,0.5],[0,0.25]];outlineConnect=0;gradientColor=none;html=1;whiteSpace=wrap;fontSize=12;fontStyle=0;container=1;pointerEvents=0;collapsible=0;recursiveResize=0;shape=mxgraph.aws4.group;grIcon=mxgraph.aws4.group_security_group;grStroke=0;strokeColor=#147EBA;fillColor=#E6F2F8;verticalAlign=top;align=left;spacingLeft=30;fontColor=#147EBA;dashed=0;" vertex="1" parent="Z9AQ9OPiCjsGzSmNNZ1b-2">
          <mxGeometry x="560" y="440" width="320" height="280" as="geometry" />
        </mxCell>
        <mxCell id="Z9AQ9OPiCjsGzSmNNZ1b-10" value="" style="outlineConnect=0;dashed=0;verticalLabelPosition=bottom;verticalAlign=top;align=center;html=1;shape=mxgraph.aws3.internet_gateway;fillColor=#F58534;gradientColor=none;aspect=fixed;" vertex="1" parent="Z9AQ9OPiCjsGzSmNNZ1b-2">
          <mxGeometry x="456.04" y="-10" width="47.92" height="50" as="geometry" />
        </mxCell>
        <mxCell id="Z9AQ9OPiCjsGzSmNNZ1b-13" value="" style="outlineConnect=0;dashed=0;verticalLabelPosition=bottom;verticalAlign=top;align=center;html=1;shape=mxgraph.aws3.vpc_nat_gateway;fillColor=#F58536;gradientColor=none;aspect=fixed;" vertex="1" parent="Z9AQ9OPiCjsGzSmNNZ1b-2">
          <mxGeometry x="260" y="234" width="49.83" height="52" as="geometry" />
        </mxCell>
        <mxCell id="Z9AQ9OPiCjsGzSmNNZ1b-14" value="" style="outlineConnect=0;dashed=0;verticalLabelPosition=bottom;verticalAlign=top;align=center;html=1;shape=mxgraph.aws3.vpc_nat_gateway;fillColor=#F58536;gradientColor=none;aspect=fixed;" vertex="1" parent="Z9AQ9OPiCjsGzSmNNZ1b-2">
          <mxGeometry x="630" y="234" width="49.83" height="52" as="geometry" />
        </mxCell>
        <mxCell id="Z9AQ9OPiCjsGzSmNNZ1b-16" value="" style="outlineConnect=0;dashed=0;verticalLabelPosition=bottom;verticalAlign=top;align=center;html=1;shape=mxgraph.aws3.route_table;fillColor=#F58536;gradientColor=none;aspect=fixed;" vertex="1" parent="Z9AQ9OPiCjsGzSmNNZ1b-2">
          <mxGeometry x="350" y="120" width="50" height="46" as="geometry" />
        </mxCell>
        <mxCell id="Z9AQ9OPiCjsGzSmNNZ1b-17" value="" style="outlineConnect=0;dashed=0;verticalLabelPosition=bottom;verticalAlign=top;align=center;html=1;shape=mxgraph.aws3.route_table;fillColor=#F58536;gradientColor=none;aspect=fixed;" vertex="1" parent="Z9AQ9OPiCjsGzSmNNZ1b-2">
          <mxGeometry x="830" y="120" width="50" height="46" as="geometry" />
        </mxCell>
        <mxCell id="Z9AQ9OPiCjsGzSmNNZ1b-18" value="" style="outlineConnect=0;dashed=0;verticalLabelPosition=bottom;verticalAlign=top;align=center;html=1;shape=mxgraph.aws3.route_table;fillColor=#F58536;gradientColor=none;aspect=fixed;" vertex="1" parent="Z9AQ9OPiCjsGzSmNNZ1b-2">
          <mxGeometry x="830" y="440" width="50" height="46" as="geometry" />
        </mxCell>
        <mxCell id="Z9AQ9OPiCjsGzSmNNZ1b-19" value="" style="outlineConnect=0;dashed=0;verticalLabelPosition=bottom;verticalAlign=top;align=center;html=1;shape=mxgraph.aws3.route_table;fillColor=#F58536;gradientColor=none;aspect=fixed;" vertex="1" parent="Z9AQ9OPiCjsGzSmNNZ1b-2">
          <mxGeometry x="350" y="440" width="50" height="46" as="geometry" />
        </mxCell>
        <mxCell id="Z9AQ9OPiCjsGzSmNNZ1b-20" value="" style="outlineConnect=0;dashed=0;verticalLabelPosition=bottom;verticalAlign=top;align=center;html=1;shape=mxgraph.aws3.emr_cluster;fillColor=#F58534;gradientColor=none;aspect=fixed;" vertex="1" parent="Z9AQ9OPiCjsGzSmNNZ1b-2">
          <mxGeometry x="120" y="500" width="44.05" height="50" as="geometry" />
        </mxCell>
        <mxCell id="Z9AQ9OPiCjsGzSmNNZ1b-21" value="" style="rounded=1;whiteSpace=wrap;html=1;fillColor=none;" vertex="1" parent="Z9AQ9OPiCjsGzSmNNZ1b-2">
          <mxGeometry x="130" y="525" width="720" height="110" as="geometry" />
        </mxCell>
        <mxCell id="Z9AQ9OPiCjsGzSmNNZ1b-22" value="" style="sketch=0;outlineConnect=0;fontColor=#232F3E;gradientColor=none;fillColor=#D45B07;strokeColor=none;dashed=0;verticalLabelPosition=bottom;verticalAlign=top;align=center;html=1;fontSize=12;fontStyle=0;aspect=fixed;pointerEvents=1;shape=mxgraph.aws4.container_2;" vertex="1" parent="Z9AQ9OPiCjsGzSmNNZ1b-2">
          <mxGeometry x="170" y="580" width="61.94" height="40" as="geometry" />
        </mxCell>
        <mxCell id="Z9AQ9OPiCjsGzSmNNZ1b-23" value="" style="sketch=0;outlineConnect=0;fontColor=#232F3E;gradientColor=none;fillColor=#D45B07;strokeColor=none;dashed=0;verticalLabelPosition=bottom;verticalAlign=top;align=center;html=1;fontSize=12;fontStyle=0;aspect=fixed;pointerEvents=1;shape=mxgraph.aws4.container_2;" vertex="1" parent="Z9AQ9OPiCjsGzSmNNZ1b-2">
          <mxGeometry x="280" y="550" width="61.94" height="40" as="geometry" />
        </mxCell>
        <mxCell id="Z9AQ9OPiCjsGzSmNNZ1b-24" value="" style="sketch=0;outlineConnect=0;fontColor=#232F3E;gradientColor=none;fillColor=#D45B07;strokeColor=none;dashed=0;verticalLabelPosition=bottom;verticalAlign=top;align=center;html=1;fontSize=12;fontStyle=0;aspect=fixed;pointerEvents=1;shape=mxgraph.aws4.container_2;" vertex="1" parent="Z9AQ9OPiCjsGzSmNNZ1b-2">
          <mxGeometry x="600" y="550" width="61.94" height="40" as="geometry" />
        </mxCell>
        <mxCell id="Z9AQ9OPiCjsGzSmNNZ1b-25" value="" style="sketch=0;outlineConnect=0;fontColor=#232F3E;gradientColor=none;fillColor=#D45B07;strokeColor=none;dashed=0;verticalLabelPosition=bottom;verticalAlign=top;align=center;html=1;fontSize=12;fontStyle=0;aspect=fixed;pointerEvents=1;shape=mxgraph.aws4.container_2;" vertex="1" parent="Z9AQ9OPiCjsGzSmNNZ1b-2">
          <mxGeometry x="730" y="580" width="61.94" height="40" as="geometry" />
        </mxCell>
        <mxCell id="Z9AQ9OPiCjsGzSmNNZ1b-26" value="" style="outlineConnect=0;dashed=0;verticalLabelPosition=bottom;verticalAlign=top;align=center;html=1;shape=mxgraph.aws3.application_load_balancer;fillColor=#F58534;gradientColor=none;aspect=fixed;" vertex="1" parent="Z9AQ9OPiCjsGzSmNNZ1b-2">
          <mxGeometry x="451.25" y="174" width="57.5" height="60" as="geometry" />
        </mxCell>
        <mxCell id="Z9AQ9OPiCjsGzSmNNZ1b-27" value="" style="endArrow=classic;html=1;rounded=0;exitX=0.145;exitY=0.855;exitDx=0;exitDy=0;exitPerimeter=0;" edge="1" parent="Z9AQ9OPiCjsGzSmNNZ1b-2" source="Z9AQ9OPiCjsGzSmNNZ1b-26" target="Z9AQ9OPiCjsGzSmNNZ1b-22">
          <mxGeometry width="50" height="50" relative="1" as="geometry">
            <mxPoint x="500" y="400" as="sourcePoint" />
            <mxPoint x="550" y="350" as="targetPoint" />
          </mxGeometry>
        </mxCell>
        <mxCell id="Z9AQ9OPiCjsGzSmNNZ1b-29" value="" style="endArrow=classic;html=1;rounded=0;exitX=0.855;exitY=0.855;exitDx=0;exitDy=0;exitPerimeter=0;" edge="1" parent="Z9AQ9OPiCjsGzSmNNZ1b-2" source="Z9AQ9OPiCjsGzSmNNZ1b-26" target="Z9AQ9OPiCjsGzSmNNZ1b-25">
          <mxGeometry width="50" height="50" relative="1" as="geometry">
            <mxPoint x="490" y="380" as="sourcePoint" />
            <mxPoint x="540" y="330" as="targetPoint" />
          </mxGeometry>
        </mxCell>
        <mxCell id="Z9AQ9OPiCjsGzSmNNZ1b-28" value="" style="endArrow=classic;html=1;rounded=0;exitX=0.145;exitY=0.855;exitDx=0;exitDy=0;exitPerimeter=0;" edge="1" parent="Z9AQ9OPiCjsGzSmNNZ1b-2" source="Z9AQ9OPiCjsGzSmNNZ1b-26" target="Z9AQ9OPiCjsGzSmNNZ1b-23">
          <mxGeometry width="50" height="50" relative="1" as="geometry">
            <mxPoint x="469.5875000000001" y="235.30000000000007" as="sourcePoint" />
            <mxPoint x="224.69455686602464" y="590.1150677827311" as="targetPoint" />
          </mxGeometry>
        </mxCell>
        <mxCell id="Z9AQ9OPiCjsGzSmNNZ1b-30" value="" style="endArrow=classic;html=1;rounded=0;exitX=0.855;exitY=0.855;exitDx=0;exitDy=0;exitPerimeter=0;" edge="1" parent="Z9AQ9OPiCjsGzSmNNZ1b-2" source="Z9AQ9OPiCjsGzSmNNZ1b-26" target="Z9AQ9OPiCjsGzSmNNZ1b-24">
          <mxGeometry width="50" height="50" relative="1" as="geometry">
            <mxPoint x="510.4124999999999" y="235.30000000000007" as="sourcePoint" />
            <mxPoint x="757.1424893883084" y="590.1150677827311" as="targetPoint" />
          </mxGeometry>
        </mxCell>
      </root>
    </mxGraphModel>
  </diagram>
</mxfile>
